# xmcd
#
# Track frame offsets:
#	150
#	24722
#	37611
#	51960
#	79833
#	94037
#	112171
#	129319
#	143333
#	163988
#
# Disc length: 2445 seconds
#
# Revision: 0
# Processed by: cddbd v1.5.1PL0 Copyright (c) Steve Scherf et al.
# Submitted via: dBpowerAMP V4.0
#
DISCID=7b098b0a
DTITLE=Stivie Ray Vaughan - Soul To Soul
DYEAR=1985
DGENRE=Blues
TTITLE0=Say What?
TTITLE1=Lookin' Out The Window
TTITLE2=Look At Little Sister
TTITLE3=Ain't Gone 'n' Give Up On Love
TTITLE4=Gone Home
TTITLE5=Change It
TTITLE6=You'll Be Mine
TTITLE7=Empty Arms
TTITLE8=Come On (Part III)
TTITLE9=Life Without You
EXTD=
EXTT0=
EXTT1=
EXTT2=
EXTT3=
EXTT4=
EXTT5=
EXTT6=
EXTT7=
EXTT8=
EXTT9=
PLAYORDER=
